<?xml version="1.0" encoding="UTF-8"?>
<svg xmlns="http://www.w3.org/2000/svg" xmlns:xlink="http://www.w3.org/1999/xlink" width="325.843pt" height="351.685pt" viewBox="0 0 325.843 351.685" version="1.1">
<g id="surface1">
<path style="fill:none;stroke-width:0.12;stroke-linecap:butt;stroke-linejoin:round;stroke:rgb(6.47583%,5.92804%,5.235291%);stroke-opacity:1;stroke-miterlimit:10;" d="M -0.001 -0.000025 C 2.108375 6.160131 4.209937 12.941381 7.788062 18.679663 C 13.100562 27.17185 38.940406 58.339819 48.690406 43.499975 C 58.038062 29.300756 49.850562 15.531225 51.569312 2.499975 C 66.549781 9.839819 79.518531 20.699194 95.858375 26.011694 C 119.991187 33.8281 142.549781 28.871069 131.940406 -0.64065 C 127.999 -11.601587 116.999 -17.511744 110.647437 -25.789087 C 112.518531 -27.230494 115.190406 -27.789087 116.471656 -30.031275 C 123.788062 -42.781275 100.088844 -61.980494 90.600562 -67.691431 C 95.569312 -70.320337 101.881812 -69.531275 105.721656 -76.230494 C 111.870094 -86.917994 103.338844 -120.058619 89.549781 -122.07815 C 69.850562 -124.964869 74.260719 -107.968775 72.600562 -107.179712 C 70.358375 -106.097681 68.588844 -109.371119 66.319312 -109.144556 C 55.690406 -108.035181 58.838844 -95.652369 62.3115 -89.886744 C 58.631812 -87.855494 50.358375 -88.695337 47.979469 -84.523462 C 47.549781 -84.980494 41.670875 -94.996119 41.920875 -96.07815 C 41.920875 -96.07815 47.170875 -102.1094 47.78025 -103.929712 C 48.881812 -107.164087 49.229469 -111.136744 50.338844 -114.519556 C 50.588844 -115.308619 55.8115 -118.26565 57.088844 -120.406275 C 63.147437 -130.449244 62.729469 -149.26565 58.721656 -160.085962 C 68.319312 -164.95315 55.819312 -201.492212 49.241187 -208.074244 C 41.350562 -215.960962 34.971656 -225.148462 24.979469 -231.14065 C 22.588844 -232.585962 12.299781 -238.070337 10.288062 -238.429712 C 6.639625 -239.085962 0.749 -238.722681 -2.641625 -239.847681 C -18.950219 -245.304712 -58.149438 -283.4219 -74.129906 -275.410181 C -58.251 -263.093775 -43.739281 -243.76565 -41.211938 -223.972681 C -40.309594 -217.031275 -45.840844 -213.996119 -44.770531 -204.714869 C -44.508813 -202.507837 -40.258813 -193.468775 -40.231469 -193.933619 C -40.368188 -190.832056 -43.46975 -186.996119 -43.700219 -183.542994 C -44.891625 -166.050806 -33.239281 -167.64065 -32.961938 -159.191431 C -32.918969 -157.878931 -32.981469 -156.570337 -32.961938 -155.246119 C -32.821313 -148.757837 -28.598656 -145.000025 -26.868188 -139.316431 C -35.829125 -135.839869 -45.379906 -134.51565 -54.981469 -133.941431 C -65.790063 -133.2969 -73.391625 -131.45315 -83.180688 -128.417994 C -88.641625 -126.718775 -97.020531 -121.488306 -100.278344 -129.285181 C -96.161156 -130.316431 -83.270531 -131.613306 -84.989281 -138.941431 C -85.348656 -140.535181 -89.020531 -141.76565 -88.739281 -144.625025 C -88.4385 -147.582056 -81.891625 -147.195337 -82.790063 -154.375025 C -83.258813 -158.175806 -87.821313 -159.6719 -89.348656 -162.601587 C -93.731469 -170.867212 -96.579125 -173.726587 -106.911156 -174.410181 C -112.141625 -174.757837 -117.680688 -172.4844 -122.399438 -173.4219 C -123.96975 -173.726587 -126.231469 -177.925806 -127.961938 -177.925806 C -142.579125 -177.847681 -155.231469 -165.808619 -152.770531 -150.562525 C -150.450219 -136.093775 -130.868188 -130.7969 -126.790063 -121.0469 C -136.551781 -122.238306 -142.891625 -132.656275 -155.290063 -130.570337 C -156.489281 -130.371119 -157.118188 -128.792994 -158.1885 -128.351587 C -175.051781 -121.371119 -179.001 -109.011744 -177.629906 -91.144556 C -176.040063 -70.1094 -169.778344 -54.6719 -158.301781 -37.089869 C -157.211938 -35.429712 -146.9385 -24.218775 -147.141625 -24.761744 C -146.411156 -22.789087 -147.118188 -20.4219 -146.629906 -18.351587 C -142.071313 1.718725 -122.430688 9.148413 -106.731469 16.480444 C -109.360375 22.648413 -132.868188 34.0781 -139.321313 34.378881 C -140.680688 24.460913 -139.270531 3.558569 -144.6885 -3.589869 C -149.430688 0.0898188 -146.848656 23.039038 -146.829125 30.628881 C -146.829125 35.878881 -144.481469 43.3281 -137.981469 44.031225 C -123.96975 45.539038 -97.848656 16.35935 -83.110375 13.320288 C -78.668969 12.410131 -63.399438 17.378881 -57.668969 18.269506 C -59.9385 25.519506 -86.758813 52.238256 -94.290063 53.281225 C -99.450219 53.988256 -103.001 42.410131 -108.098656 39.320288 C -109.778344 38.300756 -114.9385 36.761694 -115.770531 39.691381 C -117.129906 44.601538 -105.110375 66.480444 -91.559594 62.761694 C -81.821313 60.089819 -59.731469 41.218725 -54.368188 32.6406 C -53.778344 31.718725 -43.590844 14.839819 -44.461938 15.710913 C -43.71975 14.988256 -40.379906 14.519506 -39.481469 14.121069 C -36.340844 12.738256 -39.239281 10.968725 -32.770531 10.738256 C -25.981469 10.511694 -18.821313 11.429663 -12.430688 9.531225 C -10.602563 8.988256 -3.161156 1.058569 -0.001 -0.000025 Z M 13.249 -32.949244 C 11.659156 -29.570337 10.881812 -19.460962 9.831031 -15.070337 C 9.409156 -13.308619 4.971656 -7.019556 5.088844 -5.6719 C 5.850562 3.769506 30.897437 45.269506 43.608375 40.269506 C 47.170875 38.85935 49.331031 22.6406 49.049781 19.160131 C 48.928687 17.589819 44.409156 -2.441431 44.198219 -2.800806 C 43.440406 -4.070337 13.221656 -32.949244 13.249 -32.949244 Z M 84.510719 -36.179712 C 93.428687 -39.238306 101.788062 -28.019556 109.139625 -29.929712 C 114.209937 -31.238306 110.440406 -39.769556 109.221656 -42.4219 C 105.139625 -51.32815 93.190406 -59.460962 84.510719 -62.6719 C 79.581031 -54.031275 52.897437 -42.14065 43.858375 -41.539087 C 19.260719 -39.910181 22.288062 -56.910181 11.100562 -55.519556 C 17.741187 -26.621119 63.788062 3.460913 87.448219 15.191381 C 95.268531 19.0781 125.549781 29.808569 128.428687 15.871069 C 132.959937 -6.101587 103.108375 -26.070337 86.249 -32.148462 C 84.53025 -32.769556 84.709937 -34.851587 84.510719 -36.179712 Z M -86.848656 8.238256 L -86.321313 8.238256 L -86.321313 7.17185 C -104.411156 -2.941431 -120.418969 -49.57815 -100.329125 -61.320337 C -82.989281 -71.468775 -71.411156 -58.910181 -58.020531 -59.449244 C -58.891625 -61.031275 -73.040063 -71.300806 -75.379906 -72.699244 C -79.96975 -75.4844 -84.501 -82.355494 -89.020531 -85.2344 C -104.168969 -94.902369 -132.559594 -124.378931 -149.180688 -125.70315 C -166.731469 -127.105494 -165.598656 -103.406275 -164.739281 -90.781275 C -162.129906 -52.250025 -122.551781 -23.199244 -121.770531 -18.269556 C -131.829125 -17.269556 -153.950219 -49.160181 -158.461938 -57.371119 C -162.321313 -64.449244 -166.758813 -80.097681 -168.251 -87.82815 C -170.4385 -99.2344 -166.309594 -108.355494 -165.829125 -119.441431 C -165.879906 -119.496119 -165.950219 -119.562525 -166.001 -119.617212 L -166.71975 -119.617212 C -166.778344 -119.562525 -166.829125 -119.496119 -166.899438 -119.441431 C -167.590844 -113.839869 -171.051781 -107.660181 -171.821313 -101.882837 C -172.848656 -94.031275 -169.501 -86.6094 -168.059594 -79.468775 C -161.321313 -45.968775 -139.051781 -23.57815 -111.430688 -5.539087 C -107.801781 -3.1719 -105.090844 0.238256 -101.270531 2.17185 C -96.778344 4.429663 -91.239281 5.8281 -86.848656 8.238256 Z M -36.180688 -17.191431 L -36.540063 -17.191431 L -36.540063 -17.550806 L -37.610375 -17.550806 C -39.399438 -1.070337 -60.6885 4.769506 -70.911156 -9.308619 C -79.309594 7.10935 -38.758813 19.218725 -36.180688 -17.191431 Z M -27.9385 3.5781 C 2.850562 3.5781 9.491187 -38.480494 0.139625 -61.160181 C -0.321313 -62.308619 -8.661156 -68.148462 -10.090844 -69.058619 C -20.758813 -75.843775 -30.668969 -84.269556 -41.489281 -91.050806 C -53.508813 -98.57815 -107.891625 -125.246119 -118.551781 -116.753931 C -116.579125 -112.382837 -87.278344 -89.95315 -83.051781 -89.003931 C -76.840844 -87.613306 -69.891625 -87.800806 -63.489281 -86.582056 C -58.790063 -85.699244 -32.528344 -74.761744 -28.411156 -72.031275 C -18.989281 -65.769556 -5.6885 -57.761744 -5.739281 -45.300806 C -5.751 -42.250025 -7.290063 -31.238306 -11.4385 -30.839869 C -13.590844 -30.64065 -28.6885 -43.558619 -33.661156 -45.121119 C -33.961938 -40.3594 -13.21975 -24.050806 -27.9385 3.050756 Z M -11.829125 -37.968775 C -10.96975 -44.269556 -13.379906 -55.148462 -20.770531 -56.949244 C -22.899438 -46.011744 -19.368188 -46.57815 -12.528344 -38.320337 C -12.168969 -38.07815 -12.239281 -38.121119 -11.829125 -37.968775 Z M 50.139625 -51.210962 C 50.120094 -60.851587 48.088844 -60.988306 45.120094 -68.761744 L 44.588844 -68.761744 C 44.518531 -68.699244 44.471656 -68.648462 44.397437 -68.57815 C 43.881812 -62.968775 44.159156 -56.449244 37.241187 -55.8594 C 36.721656 -58.058619 34.838844 -59.718775 34.78025 -60.500025 C 34.600562 -62.898462 36.959937 -65.281275 37.147437 -66.351587 C 39.370094 -78.210962 37.081031 -74.851587 42.971656 -85.2344 C 40.108375 -85.632837 36.870094 -85.152369 34.108375 -85.726587 C 24.768531 -87.652369 22.491187 -100.878931 8.319312 -98.406275 C 5.522437 -97.910181 2.338844 -94.007837 1.147437 -91.625025 C -2.161156 -84.980494 -1.352563 -66.089869 9.018531 -63.230494 C 14.049781 -61.839869 17.600562 -62.121119 22.331031 -59.191431 C 33.659156 -52.160181 35.5615 -48.39065 50.139625 -51.210962 Z M -29.368188 -51.210962 C -26.149438 -52.558619 -27.551781 -52.398462 -26.590844 -55.570337 C -26.418969 -56.121119 -24.489281 -60.558619 -24.520531 -60.750025 C -25.129906 -64.941431 -48.001 -75.550806 -41.9385 -59.570337 C -41.231469 -57.660181 -30.918969 -53.910181 -29.368188 -51.210962 Z M 61.241187 -56.050806 C 65.069312 -56.121119 76.659156 -65.128931 76.241187 -68.8594 C 76.190406 -69.398462 67.198219 -77.316431 65.928687 -79.707056 C 65.420875 -80.687525 65.260719 -82.6094 63.858375 -82.945337 C 41.741187 -88.335962 52.440406 -61.32815 61.241187 -56.050806 Z M -49.430688 -63.031275 C -47.629906 -65.769556 -47.751 -69.488306 -45.848656 -71.980494 C -54.661156 -75.000025 -65.879906 -79.386744 -74.129906 -83.093775 L -74.129906 -82.730494 L -74.501 -82.730494 C -69.508813 -76.4844 -56.481469 -69.988306 -49.430688 -63.39065 Z M 83.440406 -102.429712 C 78.190406 -101.601587 69.999 -91.277369 66.608375 -98.847681 C 69.920875 -100.105494 70.850562 -99.89065 72.698219 -103.14065 C 67.53025 -106.230494 67.518531 -105.9219 61.940406 -103.863306 C 62.28025 -101.574244 62.729469 -97.937525 63.299781 -95.812525 C 63.709937 -94.191431 80.440406 -72.8594 81.381812 -72.550806 C 89.721656 -69.761744 100.049781 -80.269556 101.260719 -87.480494 C 101.889625 -91.26565 97.100562 -95.128931 96.459937 -98.019556 C 95.221656 -103.660181 96.518531 -113.9844 87.881812 -114.949244 C 84.448219 -115.335962 77.8115 -114.773462 77.8115 -109.773462 C 77.8115 -105.187525 82.53025 -109.45315 83.440406 -102.429712 Z M 33.659156 -103.500025 C 37.659156 -105.1719 37.721656 -108.531275 39.581031 -112.019556 C 55.260719 -141.441431 22.510719 -161.785181 -3.051781 -160.085962 C -16.918969 -159.164087 -29.239281 -141.39065 -16.309594 -141.1094 C -14.411156 -141.066431 -12.450219 -141.230494 -10.571313 -141.1094 C 10.819312 -139.679712 22.647437 -118.800806 33.659156 -103.500025 Z M -99.211938 -122.839869 C -104.528344 -131.480494 -124.391625 -126.730494 -126.649438 -139.89065 C -127.301781 -143.582056 -123.321313 -147.167994 -124.411156 -152.464869 C -125.278344 -156.730494 -131.348656 -155.781275 -132.379906 -160.687525 C -133.051781 -163.925806 -131.360375 -166.250025 -131.801781 -169.753931 C -134.641625 -168.898462 -138.090844 -169.207056 -140.590844 -168.20315 C -143.930688 -166.878931 -146.590844 -160.753931 -146.829125 -157.757837 C -147.801781 -145.882837 -138.661156 -134.875025 -129.020531 -128.843775 C -127.801781 -128.070337 -123.1885 -122.531275 -122.411156 -122.332056 C -119.258813 -121.460962 -102.180688 -121.824244 -99.211938 -122.839869 Z M -107.450219 -140.023462 C -108.590844 -150.1094 -99.399438 -144.332056 -98.141625 -151.488306 C -102.251 -152.062525 -106.391625 -152.382837 -109.950219 -154.363306 C -108.290063 -160.648462 -98.918969 -159.605494 -100.770531 -166.785181 C -102.590844 -173.875025 -125.930688 -168.269556 -126.680688 -161.51565 C -127.1885 -156.902369 -117.348656 -158.027369 -116.180688 -152.675806 C -114.778344 -146.218775 -120.020531 -144.132837 -119.258813 -137.886744 C -117.309594 -137.617212 -93.071313 -134.062525 -93.001 -134.074244 C -88.899438 -135.039087 -93.168969 -141.738306 -95.309594 -142.351587 C -99.930688 -143.675806 -103.090844 -140.507837 -107.450219 -140.023462 Z M -100.278344 -155.433619 C -91.770531 -153.464869 -95.239281 -148.542994 -93.028344 -147.410181 C -85.309594 -143.437525 -84.610375 -160.339869 -96.868188 -159.01565 C -99.6885 -158.707056 -99.360375 -157.894556 -100.278344 -155.433619 Z M 52.100562 -170.824244 C 53.350562 -176.187525 49.549781 -187.554712 46.749 -192.757837 C 40.409156 -204.554712 36.549781 -211.2969 22.018531 -211.2969 C 14.491187 -211.2969 7.178687 -211.20315 0.139625 -210.07815 C -5.180688 -209.222681 -34.278344 -195.14065 -35.258813 -190.164087 C -36.809594 -182.339869 -33.129906 -179.519556 -31.528344 -173.339869 C -20.360375 -173.449244 -21.961938 -185.148462 -0.899438 -185.148462 C 20.538062 -185.164087 35.249 -184.414087 51.928687 -171.187525 C 51.991187 -170.812525 51.897437 -171.027369 52.100562 -170.824244 Z M -17.200219 -237.07815 C -27.348656 -254.062525 -48.778344 -258.906275 -53.360375 -264.656275 L -53.899438 -264.656275 C -53.96975 -264.601587 -54.020531 -264.535181 -54.090844 -264.480494 C -49.46975 -255.253931 -42.4385 -246.45315 -37.899438 -237.132837 C -37.239281 -235.753931 -36.711938 -229.550806 -34.899438 -229.347681 C -33.141625 -229.164087 -29.040063 -232.7344 -27.508813 -233.656275 C -24.301781 -235.593775 -20.21975 -235.289087 -17.200219 -237.07815 Z M -17.200219 -237.07815 " transform="matrix(1,0,0,-1,185.626,68.9531)"/>
<path style=" stroke:none;fill-rule:evenodd;fill:rgb(6.47583%,5.92804%,5.235291%);fill-opacity:1;" d="M 185.625 68.953125 C 187.734375 62.792969 189.835938 56.011719 193.414062 50.273438 C 198.726562 41.78125 224.566406 10.613281 234.316406 25.453125 C 243.664062 39.652344 235.476562 53.421875 237.195312 66.453125 C 252.175781 59.113281 265.144531 48.253906 281.484375 42.941406 C 305.617188 35.125 328.175781 40.082031 317.566406 69.59375 C 313.625 80.554688 302.625 86.464844 296.273438 94.742188 C 298.144531 96.183594 300.816406 96.742188 302.097656 98.984375 C 309.414062 111.734375 285.714844 130.933594 276.226562 136.644531 C 281.195312 139.273438 287.507812 138.484375 291.347656 145.183594 C 297.496094 155.871094 288.964844 189.011719 275.175781 191.03125 C 255.476562 193.917969 259.886719 176.921875 258.226562 176.132812 C 255.984375 175.050781 254.214844 178.324219 251.945312 178.097656 C 241.316406 176.988281 244.464844 164.605469 247.9375 158.839844 C 244.257812 156.808594 235.984375 157.648438 233.605469 153.476562 C 233.175781 153.933594 227.296875 163.949219 227.546875 165.03125 C 227.546875 165.03125 232.796875 171.0625 233.40625 172.882812 C 234.507812 176.117188 234.855469 180.089844 235.964844 183.472656 C 236.214844 184.261719 241.4375 187.21875 242.714844 189.359375 C 248.773438 199.402344 248.355469 218.21875 244.347656 229.039062 C 253.945312 233.90625 241.445312 270.445312 234.867188 277.027344 C 226.976562 284.914062 220.597656 294.101562 210.605469 300.09375 C 208.214844 301.539062 197.925781 307.023438 195.914062 307.382812 C 192.265625 308.039062 186.375 307.675781 182.984375 308.800781 C 166.675781 314.257812 127.476562 352.375 111.496094 344.363281 C 127.375 332.046875 141.886719 312.71875 144.414062 292.925781 C 145.316406 285.984375 139.785156 282.949219 140.855469 273.667969 C 141.117188 271.460938 145.367188 262.421875 145.394531 262.886719 C 145.257812 259.785156 142.15625 255.949219 141.925781 252.496094 C 140.734375 235.003906 152.386719 236.59375 152.664062 228.144531 C 152.707031 226.832031 152.644531 225.523438 152.664062 224.199219 C 152.804688 217.710938 157.027344 213.953125 158.757812 208.269531 C 149.796875 204.792969 140.246094 203.46875 130.644531 202.894531 C 119.835938 202.25 112.234375 200.40625 102.445312 197.371094 C 96.984375 195.671875 88.605469 190.441406 85.347656 198.238281 C 89.464844 199.269531 102.355469 200.566406 100.636719 207.894531 C 100.277344 209.488281 96.605469 210.71875 96.886719 213.578125 C 97.1875 216.535156 103.734375 216.148438 102.835938 223.328125 C 102.367188 227.128906 97.804688 228.625 96.277344 231.554688 C 91.894531 239.820312 89.046875 242.679688 78.714844 243.363281 C 73.484375 243.710938 67.945312 241.4375 63.226562 242.375 C 61.65625 242.679688 59.394531 246.878906 57.664062 246.878906 C 43.046875 246.800781 30.394531 234.761719 32.855469 219.515625 C 35.175781 205.046875 54.757812 199.75 58.835938 190 C 49.074219 191.191406 42.734375 201.609375 30.335938 199.523438 C 29.136719 199.324219 28.507812 197.746094 27.4375 197.304688 C 10.574219 190.324219 6.625 177.964844 7.996094 160.097656 C 9.585938 139.0625 15.847656 123.625 27.324219 106.042969 C 28.414062 104.382812 38.6875 93.171875 38.484375 93.714844 C 39.214844 91.742188 38.507812 89.375 38.996094 87.304688 C 43.554688 67.234375 63.195312 59.804688 78.894531 52.472656 C 76.265625 46.304688 52.757812 34.875 46.304688 34.574219 C 44.945312 44.492188 46.355469 65.394531 40.9375 72.542969 C 36.195312 68.863281 38.777344 45.914062 38.796875 38.324219 C 38.796875 33.074219 41.144531 25.625 47.644531 24.921875 C 61.65625 23.414062 87.777344 52.59375 102.515625 55.632812 C 106.957031 56.542969 122.226562 51.574219 127.957031 50.683594 C 125.6875 43.433594 98.867188 16.714844 91.335938 15.671875 C 86.175781 14.964844 82.625 26.542969 77.527344 29.632812 C 75.847656 30.652344 70.6875 32.191406 69.855469 29.261719 C 68.496094 24.351562 80.515625 2.472656 94.066406 6.191406 C 103.804688 8.863281 125.894531 27.734375 131.257812 36.3125 C 131.847656 37.234375 142.035156 54.113281 141.164062 53.242188 C 141.90625 53.964844 145.246094 54.433594 146.144531 54.832031 C 149.285156 56.214844 146.386719 57.984375 152.855469 58.214844 C 159.644531 58.441406 166.804688 57.523438 173.195312 59.421875 C 175.023438 59.964844 182.464844 67.894531 185.625 68.953125 M 198.875 101.902344 C 197.285156 98.523438 196.507812 88.414062 195.457031 84.023438 C 195.035156 82.261719 190.597656 75.972656 190.714844 74.625 C 191.476562 65.183594 216.523438 23.683594 229.234375 28.683594 C 232.796875 30.09375 234.957031 46.3125 234.675781 49.792969 C 234.554688 51.363281 230.035156 71.394531 229.824219 71.753906 C 229.066406 73.023438 198.847656 101.902344 198.875 101.902344 M 270.136719 105.132812 C 279.054688 108.191406 287.414062 96.972656 294.765625 98.882812 C 299.835938 100.191406 296.066406 108.722656 294.847656 111.375 C 290.765625 120.28125 278.816406 128.414062 270.136719 131.625 C 265.207031 122.984375 238.523438 111.09375 229.484375 110.492188 C 204.886719 108.863281 207.914062 125.863281 196.726562 124.472656 C 203.367188 95.574219 249.414062 65.492188 273.074219 53.761719 C 280.894531 49.875 311.175781 39.144531 314.054688 53.082031 C 318.585938 75.054688 288.734375 95.023438 271.875 101.101562 C 270.15625 101.722656 270.335938 103.804688 270.136719 105.132812 M 98.777344 60.714844 L 99.304688 60.714844 L 99.304688 61.78125 C 81.214844 71.894531 65.207031 118.53125 85.296875 130.273438 C 102.636719 140.421875 114.214844 127.863281 127.605469 128.402344 C 126.734375 129.984375 112.585938 140.253906 110.246094 141.652344 C 105.65625 144.4375 101.125 151.308594 96.605469 154.1875 C 81.457031 163.855469 53.066406 193.332031 36.445312 194.65625 C 18.894531 196.058594 20.027344 172.359375 20.886719 159.734375 C 23.496094 121.203125 63.074219 92.152344 63.855469 87.222656 C 53.796875 86.222656 31.675781 118.113281 27.164062 126.324219 C 23.304688 133.402344 18.867188 149.050781 17.375 156.78125 C 15.1875 168.1875 19.316406 177.308594 19.796875 188.394531 C 19.746094 188.449219 19.675781 188.515625 19.625 188.570312 L 18.90625 188.570312 C 18.847656 188.515625 18.796875 188.449219 18.726562 188.394531 C 18.035156 182.792969 14.574219 176.613281 13.804688 170.835938 C 12.777344 162.984375 16.125 155.5625 17.566406 148.421875 C 24.304688 114.921875 46.574219 92.53125 74.195312 74.492188 C 77.824219 72.125 80.535156 68.714844 84.355469 66.78125 C 88.847656 64.523438 94.386719 63.125 98.777344 60.714844 M 149.445312 86.144531 L 149.085938 86.144531 L 149.085938 86.503906 L 148.015625 86.503906 C 146.226562 70.023438 124.9375 64.183594 114.714844 78.261719 C 106.316406 61.84375 146.867188 49.734375 149.445312 86.144531 M 157.6875 65.375 C 188.476562 65.375 195.117188 107.433594 185.765625 130.113281 C 185.304688 131.261719 176.964844 137.101562 175.535156 138.011719 C 164.867188 144.796875 154.957031 153.222656 144.136719 160.003906 C 132.117188 167.53125 77.734375 194.199219 67.074219 185.707031 C 69.046875 181.335938 98.347656 158.90625 102.574219 157.957031 C 108.785156 156.566406 115.734375 156.753906 122.136719 155.535156 C 126.835938 154.652344 153.097656 143.714844 157.214844 140.984375 C 166.636719 134.722656 179.9375 126.714844 179.886719 114.253906 C 179.875 111.203125 178.335938 100.191406 174.1875 99.792969 C 172.035156 99.59375 156.9375 112.511719 151.964844 114.074219 C 151.664062 109.3125 172.40625 93.003906 157.6875 65.902344 Z M 173.796875 106.921875 C 174.65625 113.222656 172.246094 124.101562 164.855469 125.902344 C 162.726562 114.964844 166.257812 115.53125 173.097656 107.273438 C 173.457031 107.03125 173.386719 107.074219 173.796875 106.921875 M 235.765625 120.164062 C 235.746094 129.804688 233.714844 129.941406 230.746094 137.714844 L 230.214844 137.714844 C 230.144531 137.652344 230.097656 137.601562 230.023438 137.53125 C 229.507812 131.921875 229.785156 125.402344 222.867188 124.8125 C 222.347656 127.011719 220.464844 128.671875 220.40625 129.453125 C 220.226562 131.851562 222.585938 134.234375 222.773438 135.304688 C 224.996094 147.164062 222.707031 143.804688 228.597656 154.1875 C 225.734375 154.585938 222.496094 154.105469 219.734375 154.679688 C 210.394531 156.605469 208.117188 169.832031 193.945312 167.359375 C 191.148438 166.863281 187.964844 162.960938 186.773438 160.578125 C 183.464844 153.933594 184.273438 135.042969 194.644531 132.183594 C 199.675781 130.792969 203.226562 131.074219 207.957031 128.144531 C 219.285156 121.113281 221.1875 117.34375 235.765625 120.164062 M 156.257812 120.164062 C 159.476562 121.511719 158.074219 121.351562 159.035156 124.523438 C 159.207031 125.074219 161.136719 129.511719 161.105469 129.703125 C 160.496094 133.894531 137.625 144.503906 143.6875 128.523438 C 144.394531 126.613281 154.707031 122.863281 156.257812 120.164062 M 246.867188 125.003906 C 250.695312 125.074219 262.285156 134.082031 261.867188 137.8125 C 261.816406 138.351562 252.824219 146.269531 251.554688 148.660156 C 251.046875 149.640625 250.886719 151.5625 249.484375 151.898438 C 227.367188 157.289062 238.066406 130.28125 246.867188 125.003906 M 136.195312 131.984375 C 137.996094 134.722656 137.875 138.441406 139.777344 140.933594 C 130.964844 143.953125 119.746094 148.339844 111.496094 152.046875 L 111.496094 151.683594 L 111.125 151.683594 C 116.117188 145.4375 129.144531 138.941406 136.195312 132.34375 Z M 269.066406 171.382812 C 263.816406 170.554688 255.625 160.230469 252.234375 167.800781 C 255.546875 169.058594 256.476562 168.84375 258.324219 172.09375 C 253.15625 175.183594 253.144531 174.875 247.566406 172.816406 C 247.90625 170.527344 248.355469 166.890625 248.925781 164.765625 C 249.335938 163.144531 266.066406 141.8125 267.007812 141.503906 C 275.347656 138.714844 285.675781 149.222656 286.886719 156.433594 C 287.515625 160.21875 282.726562 164.082031 282.085938 166.972656 C 280.847656 172.613281 282.144531 182.9375 273.507812 183.902344 C 270.074219 184.289062 263.4375 183.726562 263.4375 178.726562 C 263.4375 174.140625 268.15625 178.40625 269.066406 171.382812 M 219.285156 172.453125 C 223.285156 174.125 223.347656 177.484375 225.207031 180.972656 C 240.886719 210.394531 208.136719 230.738281 182.574219 229.039062 C 168.707031 228.117188 156.386719 210.34375 169.316406 210.0625 C 171.214844 210.019531 173.175781 210.183594 175.054688 210.0625 C 196.445312 208.632812 208.273438 187.753906 219.285156 172.453125 M 86.414062 191.792969 C 81.097656 200.433594 61.234375 195.683594 58.976562 208.84375 C 58.324219 212.535156 62.304688 216.121094 61.214844 221.417969 C 60.347656 225.683594 54.277344 224.734375 53.246094 229.640625 C 52.574219 232.878906 54.265625 235.203125 53.824219 238.707031 C 50.984375 237.851562 47.535156 238.160156 45.035156 237.15625 C 41.695312 235.832031 39.035156 229.707031 38.796875 226.710938 C 37.824219 214.835938 46.964844 203.828125 56.605469 197.796875 C 57.824219 197.023438 62.4375 191.484375 63.214844 191.285156 C 66.367188 190.414062 83.445312 190.777344 86.414062 191.792969 M 78.175781 208.976562 C 77.035156 219.0625 86.226562 213.285156 87.484375 220.441406 C 83.375 221.015625 79.234375 221.335938 75.675781 223.316406 C 77.335938 229.601562 86.707031 228.558594 84.855469 235.738281 C 83.035156 242.828125 59.695312 237.222656 58.945312 230.46875 C 58.4375 225.855469 68.277344 226.980469 69.445312 221.628906 C 70.847656 215.171875 65.605469 213.085938 66.367188 206.839844 C 68.316406 206.570312 92.554688 203.015625 92.625 203.027344 C 96.726562 203.992188 92.457031 210.691406 90.316406 211.304688 C 85.695312 212.628906 82.535156 209.460938 78.175781 208.976562 M 85.347656 224.386719 C 93.855469 222.417969 90.386719 217.496094 92.597656 216.363281 C 100.316406 212.390625 101.015625 229.292969 88.757812 227.96875 C 85.9375 227.660156 86.265625 226.847656 85.347656 224.386719 M 237.726562 239.777344 C 238.976562 245.140625 235.175781 256.507812 232.375 261.710938 C 226.035156 273.507812 222.175781 280.25 207.644531 280.25 C 200.117188 280.25 192.804688 280.15625 185.765625 279.03125 C 180.445312 278.175781 151.347656 264.09375 150.367188 259.117188 C 148.816406 251.292969 152.496094 248.472656 154.097656 242.292969 C 165.265625 242.402344 163.664062 254.101562 184.726562 254.101562 C 206.164062 254.117188 220.875 253.367188 237.554688 240.140625 C 237.617188 239.765625 237.523438 239.980469 237.726562 239.777344 M 168.425781 306.03125 C 158.277344 323.015625 136.847656 327.859375 132.265625 333.609375 L 131.726562 333.609375 C 131.65625 333.554688 131.605469 333.488281 131.535156 333.433594 C 136.15625 324.207031 143.1875 315.40625 147.726562 306.085938 C 148.386719 304.707031 148.914062 298.503906 150.726562 298.300781 C 152.484375 298.117188 156.585938 301.6875 158.117188 302.609375 C 161.324219 304.546875 165.40625 304.242188 168.425781 306.03125 "/>
</g>
</svg>
